<?xml version="1.0" standalone="no"?>
<!DOCTYPE svg PUBLIC "-//W3C//DTD SVG 20010904//EN"
 "http://www.w3.org/TR/2001/REC-SVG-20010904/DTD/svg10.dtd">
<svg version="1.0" xmlns="http://www.w3.org/2000/svg"
 width="1024.000000pt" height="1024.000000pt" viewBox="0 0 1024.000000 1024.000000"
 preserveAspectRatio="xMidYMid meet">
<metadata>
Created by potrace 1.14, written by Peter Selinger 2001-2017
</metadata>
<g transform="translate(0.000000,1024.000000) scale(0.100000,-0.100000)"
fill="#000000" stroke="none">
<path d="M0 5120 l0 -5120 5120 0 5120 0 0 5120 0 5120 -5120 0 -5120 0 0
-5120z m5721 3114 c31 -28 72 -117 73 -159 1 -53 -44 -129 -140 -232 l-72 -78
-28 21 c-49 35 -44 69 20 143 32 37 65 88 77 120 19 50 20 62 10 112 -6 30
-11 66 -11 78 0 20 3 22 28 16 15 -3 34 -13 43 -21z m412 -6 c93 -124 79 -251
-42 -373 -46 -47 -136 -101 -145 -87 -2 4 -7 24 -11 44 -7 34 -3 42 39 90 70
80 99 145 93 210 -3 29 -9 68 -12 85 -10 44 -1 63 29 63 17 0 33 -11 49 -32z
m177 -773 l0 -135 -500 0 -500 0 0 135 0 135 500 0 500 0 0 -135z m0 -277 c0
-56 -3 -65 -32 -95 -28 -29 -30 -35 -18 -47 8 -8 150 -102 315 -210 1076 -699
2106 -1386 2130 -1419 25 -35 26 -108 2 -154 -33 -63 -121 -82 -200 -42 -23
12 -244 156 -492 319 -247 164 -658 434 -913 601 -426 280 -584 383 -1103 716
l-186 120 -164 -101 c-173 -107 -355 -225 -919 -596 -855 -561 -1489 -976
-1567 -1024 -103 -63 -175 -59 -237 14 -20 24 -26 43 -26 76 0 74 20 98 148
181 64 42 245 160 402 263 157 103 409 268 560 367 277 181 838 550 1158 760
160 106 193 133 158 133 -21 0 -26 23 -26 116 l0 84 505 0 505 0 0 -62z
m-1338 -1475 c51 -30 72 -66 71 -122 -1 -60 -29 -105 -76 -120 -17 -6 -84 -18
-147 -26 -562 -78 -1021 -400 -1265 -888 -74 -148 -108 -245 -136 -383 -23
-115 -39 -137 -111 -154 -75 -19 -147 -8 -175 24 -31 37 -30 79 7 223 73 282
174 505 312 688 98 130 272 308 383 392 222 167 511 299 772 352 213 44 308
47 365 14z m513 -35 c7 -47 52 -308 60 -348 l5 -25 118 3 c265 8 552 -58 758
-173 198 -111 417 -327 585 -577 79 -117 120 -188 110 -188 -5 0 -38 14 -73
30 -69 32 -179 60 -240 60 -110 0 -232 -51 -330 -140 -37 -33 -75 -60 -85 -60
-14 1 -26 25 -56 118 -103 316 -312 634 -510 773 -73 51 -144 82 -214 94 -60
10 -54 -8 11 -35 142 -57 313 -210 428 -381 76 -113 169 -307 214 -446 20 -63
35 -116 32 -118 -3 -3 -40 4 -84 16 -88 24 -350 37 -469 24 l-67 -7 6 -116
c25 -465 26 -473 60 -542 27 -58 31 -75 31 -150 -1 -67 -5 -94 -22 -126 -20
-37 -94 -114 -111 -114 -35 -1 -28 -23 53 -175 47 -87 85 -160 85 -162 0 -2
-42 -2 -92 -1 l-93 3 -74 148 -73 147 -39 0 -39 0 0 -150 0 -150 -80 0 -80 0
-2 418 c-2 230 -2 426 0 435 6 29 323 22 396 -8 18 -8 19 -4 13 76 -4 46 -10
168 -14 272 -5 162 -8 187 -22 187 -9 0 -70 -11 -136 -25 -134 -28 -286 -75
-357 -111 -26 -13 -51 -24 -55 -24 -18 0 18 307 53 452 56 232 148 405 290
545 52 51 94 95 94 97 0 2 -17 0 -37 -6 -136 -37 -292 -249 -378 -513 -42
-128 -80 -322 -95 -485 -7 -69 -14 -131 -16 -137 -2 -8 -31 2 -87 31 -108 57
-179 72 -272 59 -97 -15 -164 -42 -274 -113 -51 -34 -96 -59 -99 -56 -7 7 43
162 89 279 103 258 218 446 360 588 182 182 462 336 737 405 50 13 72 23 72
34 0 17 -38 322 -45 363 -4 22 0 30 18 37 34 14 35 13 42 -32z m-633 -2070
c48 -106 119 -269 159 -363 39 -93 87 -200 105 -237 49 -98 49 -98 -49 -98
l-83 0 -21 50 -21 50 -161 0 -160 0 -11 -42 c-6 -24 -12 -47 -14 -52 -2 -9
-163 -12 -172 -3 -10 9 323 887 336 887 3 0 45 -87 92 -192z m-2184 72 c42
-100 300 -734 309 -757 4 -10 -14 -13 -84 -13 l-89 0 -15 43 -16 42 -161 3
-162 2 -22 -45 -22 -45 -78 0 c-43 0 -78 4 -78 9 0 13 341 838 356 863 10 16
21 -2 62 -102z m728 16 c50 -96 314 -755 314 -781 0 -3 -38 -5 -84 -5 l-83 0
-21 50 -21 50 -138 0 c-76 0 -143 -4 -149 -8 -7 -4 -17 -26 -24 -49 l-13 -43
-89 0 c-48 0 -88 1 -88 3 0 5 124 340 199 539 83 220 119 308 134 326 13 16
14 14 63 -82z m3685 69 c150 -53 267 -195 292 -355 47 -305 -192 -555 -489
-511 -147 22 -277 118 -344 255 -30 60 -35 81 -38 161 -7 145 38 249 148 348
127 114 289 152 431 102z m-5363 3 c12 -16 119 -300 162 -433 18 -55 36 -104
41 -109 4 -5 35 79 69 185 34 107 73 231 88 277 l26 82 89 0 c81 0 88 -2 82
-17 -4 -10 -58 -169 -121 -353 -62 -184 -126 -371 -143 -415 l-29 -80 -63 0
-64 0 -42 115 c-86 229 -254 734 -249 747 7 18 139 18 154 1z m2232 -159 c0
-110 4 -168 10 -164 5 3 60 80 122 171 l112 164 83 0 c46 0 83 -3 83 -6 0 -4
-54 -95 -120 -204 -66 -109 -120 -201 -120 -204 0 -3 20 -33 44 -68 63 -91
216 -362 216 -383 0 -3 -43 -5 -95 -5 -87 0 -96 2 -108 23 -124 203 -202 317
-219 317 -4 0 -8 -76 -8 -170 l0 -170 -85 0 -85 0 0 435 0 435 85 0 85 0 0
-171z m2016 165 l29 -5 -3 -282 c-3 -277 -3 -283 20 -327 44 -85 129 -114 199
-67 58 39 59 43 59 375 l0 302 78 0 79 0 6 -132 c3 -73 5 -221 4 -329 l-2
-195 -30 -59 c-54 -107 -176 -173 -295 -162 -106 9 -190 69 -240 171 -42 84
-46 125 -42 444 l3 272 53 0 c30 0 66 -3 82 -6z m1885 -30 c87 -41 166 -120
210 -209 33 -68 34 -72 34 -195 0 -123 -1 -126 -33 -187 -67 -123 -196 -220
-324 -243 -31 -6 -109 -9 -175 -8 l-118 3 -3 439 -2 438 172 -4 c169 -3 175
-4 239 -34z m807 -46 l-3 -83 -152 -3 -153 -3 0 -94 0 -95 150 0 150 0 0 -85
0 -85 -155 0 -155 0 0 -85 0 -85 155 0 155 0 0 -80 c0 -69 -3 -81 -20 -90 -12
-7 -98 -9 -237 -8 l-218 3 -3 438 -2 437 245 0 246 0 -3 -82z m-2884 -964 c23
-23 29 -57 24 -138 -8 -129 -85 -248 -200 -312 -133 -73 -313 -2 -392 154 -25
49 -56 178 -56 233 0 59 15 69 96 68 67 -2 94 -22 94 -71 2 -175 137 -278 228
-173 30 33 52 104 52 166 0 39 16 68 43 79 36 14 94 11 111 -6z"/>
<path d="M5370 3491 l0 -99 65 -7 c77 -9 107 -2 135 27 24 26 27 93 5 122 -31
41 -68 56 -137 56 l-68 0 0 -99z"/>
<path d="M4730 3270 c-23 -50 -40 -93 -38 -96 3 -3 44 -4 91 -2 l86 3 -42 93
c-22 50 -44 92 -47 92 -4 0 -26 -41 -50 -90z"/>
<path d="M2597 3333 c-13 -21 -67 -166 -64 -170 3 -2 39 -3 80 -1 l76 3 -35
80 c-36 84 -48 102 -57 88z"/>
<path d="M3322 3293 c-17 -43 -34 -91 -37 -106 l-7 -27 74 0 c41 0 77 2 80 5
5 6 -63 189 -75 201 -3 3 -19 -30 -35 -73z"/>
<path d="M6835 3579 c-179 -89 -213 -335 -62 -464 43 -37 118 -65 172 -65 88
0 177 51 221 126 36 61 44 168 20 242 -21 63 -82 134 -139 161 -58 28 -156 28
-212 0z"/>
<path d="M7610 3335 l0 -265 40 0 c168 0 264 99 264 270 1 91 -21 138 -89 198
-48 42 -104 62 -174 62 l-41 0 0 -265z"/>
</g>
</svg>
